<svg xmlns="http://www.w3.org/2000/svg" xmlns:xlink="http://www.w3.org/1999/xlink" width="500" zoomAndPan="magnify" viewBox="0 0 375 374.999991" height="500" preserveAspectRatio="xMidYMid meet" version="1.0"><defs><clipPath id="be05f0a4bb"><path d="M 27 175 L 40 175 L 40 181 L 27 181 Z M 27 175 " clip-rule="nonzero"/></clipPath><clipPath id="feffd695d9"><path d="M 176.273438 442.363281 L -33.953125 131.832031 L 183.421875 -15.324219 L 393.644531 295.207031 Z M 176.273438 442.363281 " clip-rule="nonzero"/></clipPath><clipPath id="22c214c885"><path d="M 176.273438 442.363281 L -33.953125 131.832031 L 183.421875 -15.324219 L 393.644531 295.207031 Z M 176.273438 442.363281 " clip-rule="nonzero"/></clipPath><clipPath id="36fdeb3ea8"><path d="M 0 54 L 375 54 L 375 341 L 0 341 Z M 0 54 " clip-rule="nonzero"/></clipPath><clipPath id="2f15a76fef"><path d="M 176.273438 442.363281 L -33.953125 131.832031 L 183.421875 -15.324219 L 393.644531 295.207031 Z M 176.273438 442.363281 " clip-rule="nonzero"/></clipPath><clipPath id="7d31c8e406"><path d="M 176.273438 442.363281 L -33.953125 131.832031 L 183.421875 -15.324219 L 393.644531 295.207031 Z M 176.273438 442.363281 " clip-rule="nonzero"/></clipPath><clipPath id="8567b948aa"><path d="M 276 185 L 283 185 L 283 186 L 276 186 Z M 276 185 " clip-rule="nonzero"/></clipPath><clipPath id="8a2fdeac36"><path d="M 176.273438 442.363281 L -33.953125 131.832031 L 183.421875 -15.324219 L 393.644531 295.207031 Z M 176.273438 442.363281 " clip-rule="nonzero"/></clipPath><clipPath id="c00953e36b"><path d="M 176.273438 442.363281 L -33.953125 131.832031 L 183.421875 -15.324219 L 393.644531 295.207031 Z M 176.273438 442.363281 " clip-rule="nonzero"/></clipPath><clipPath id="e2d8ccd867"><path d="M 147 45 L 320 45 L 320 235 L 147 235 Z M 147 45 " clip-rule="nonzero"/></clipPath><clipPath id="74983b9ec0"><path d="M 164.058594 -14.636719 L 329.933594 55.261719 L 211.101562 337.246094 L 45.226562 267.347656 Z M 164.058594 -14.636719 " clip-rule="nonzero"/></clipPath><clipPath id="8dcb558f1e"><path d="M 164.058594 -14.636719 L 329.933594 55.261719 L 211.101562 337.246094 L 45.226562 267.347656 Z M 164.058594 -14.636719 " clip-rule="nonzero"/></clipPath><clipPath id="1b8f310ec0"><path d="M 164.058594 -14.636719 L 329.933594 55.261719 L 211.101562 337.246094 L 45.226562 267.347656 Z M 164.058594 -14.636719 " clip-rule="nonzero"/></clipPath><clipPath id="0a157ac2a5"><path d="M 59 174 L 232 174 L 232 316 L 59 316 Z M 59 174 " clip-rule="nonzero"/></clipPath><clipPath id="46b2ffa4e2"><path d="M 164.058594 -14.636719 L 329.933594 55.261719 L 211.101562 337.246094 L 45.226562 267.347656 Z M 164.058594 -14.636719 " clip-rule="nonzero"/></clipPath><clipPath id="64eb35371b"><path d="M 164.058594 -14.636719 L 329.933594 55.261719 L 211.101562 337.246094 L 45.226562 267.347656 Z M 164.058594 -14.636719 " clip-rule="nonzero"/></clipPath><clipPath id="17bc59a8f8"><path d="M 164.058594 -14.636719 L 329.933594 55.261719 L 211.101562 337.246094 L 45.226562 267.347656 Z M 164.058594 -14.636719 " clip-rule="nonzero"/></clipPath><clipPath id="b3cc16bc1c"><path d="M 134 161 L 243 161 L 243 250 L 134 250 Z M 134 161 " clip-rule="nonzero"/></clipPath><clipPath id="01579d2d19"><path d="M 164.058594 -14.636719 L 329.933594 55.261719 L 211.101562 337.246094 L 45.226562 267.347656 Z M 164.058594 -14.636719 " clip-rule="nonzero"/></clipPath><clipPath id="4d73054a54"><path d="M 164.058594 -14.636719 L 329.933594 55.261719 L 211.101562 337.246094 L 45.226562 267.347656 Z M 164.058594 -14.636719 " clip-rule="nonzero"/></clipPath><clipPath id="d8b0db0b00"><path d="M 164.058594 -14.636719 L 329.933594 55.261719 L 211.101562 337.246094 L 45.226562 267.347656 Z M 164.058594 -14.636719 " clip-rule="nonzero"/></clipPath><clipPath id="61082808ef"><path d="M 127 267 L 167 267 L 167 300 L 127 300 Z M 127 267 " clip-rule="nonzero"/></clipPath><clipPath id="3cd8074e81"><path d="M 164.058594 -14.636719 L 329.933594 55.261719 L 211.101562 337.246094 L 45.226562 267.347656 Z M 164.058594 -14.636719 " clip-rule="nonzero"/></clipPath><clipPath id="fb5cfd8bd1"><path d="M 164.058594 -14.636719 L 329.933594 55.261719 L 211.101562 337.246094 L 45.226562 267.347656 Z M 164.058594 -14.636719 " clip-rule="nonzero"/></clipPath><clipPath id="b61b07a648"><path d="M 164.058594 -14.636719 L 329.933594 55.261719 L 211.101562 337.246094 L 45.226562 267.347656 Z M 164.058594 -14.636719 " clip-rule="nonzero"/></clipPath></defs><g clip-path="url(#be05f0a4bb)"><g clip-path="url(#feffd695d9)"><g clip-path="url(#22c214c885)"><path fill="#5271ff" d="M 27.941406 175.972656 C 31.769531 177.695312 35.507812 179.289062 39.144531 180.867188 C 36.3125 179.664062 30.710938 177.21875 27.941406 175.972656 Z M 27.941406 175.972656 " fill-opacity="1" fill-rule="nonzero"/></g></g></g><g clip-path="url(#36fdeb3ea8)"><g clip-path="url(#2f15a76fef)"><g clip-path="url(#7d31c8e406)"><path fill="#5271ff" d="M -0.816406 110.324219 C 9.761719 116.738281 17.078125 123.34375 28.585938 126.925781 C 28.109375 128.257812 27.265625 130.9375 30.035156 132.183594 C 34.390625 134.554688 38.957031 136.691406 43.542969 138.722656 C 44.941406 143.09375 40.230469 144.265625 38.675781 147.792969 C 43.089844 149.300781 43.335938 154.542969 47.75 156.050781 C 47.152344 157.46875 58.339844 166.675781 64.265625 170.554688 C 64.265625 170.554688 66.710938 170.640625 72.695312 174.203125 C 74.707031 175.410156 75.183594 174.078125 75.699219 172.8125 C 75.183594 174.078125 75.183594 174.078125 74.707031 175.410156 C 77.710938 174.019531 80.738281 179.03125 83.222656 178.910156 C 82.746094 180.238281 82.746094 180.238281 82.230469 181.507812 C 87.199219 181.261719 90.328125 186.019531 94.90625 186.957031 C 94.433594 188.289062 94.433594 188.289062 93.957031 189.617188 C 95.988281 190.722656 98.019531 191.824219 97.542969 193.152344 C 97.296875 193.871094 97.171875 194.230469 97.046875 194.589844 C 88.644531 191.933594 79.09375 188.125 72.71875 186.019531 C 72.242188 187.351562 71.398438 190.03125 70.921875 191.363281 L 76.542969 193.703125 L 75.699219 196.382812 C 62.746094 190.9375 51.421875 186.128906 39.269531 180.78125 C 38.792969 182.109375 38.425781 183.460938 41.148438 184.644531 C 29.804688 179.941406 16.351562 172.265625 4.285156 169.886719 C 1.101562 169.929688 2.425781 175.269531 10.363281 180.355469 C 18.773438 184.105469 24.3125 186.597656 32.722656 190.347656 L 31.773438 193.011719 C 26.109375 190.605469 18.234375 185.480469 12.179688 184.257812 C 8.9375 184.34375 16.398438 190.761719 13.15625 190.847656 C 10.386719 189.601562 7.574219 188.292969 4.332031 188.382812 C 12.742188 192.132812 24.375 195.90625 32.332031 200.886719 C 34.691406 203.417969 37.089844 206.011719 36.136719 208.671875 C 50.625 213.542969 60.566406 222.128906 66.832031 232.472656 C 68.308594 235.328125 76.925781 238.574219 84.675781 241.488281 C 130.429688 267.476562 182.410156 283.558594 225.601562 308.066406 C 228.105469 310.410156 233.128906 314.988281 235.589844 317.265625 C 257.6875 328.90625 287.421875 336.382812 311.699219 340.402344 C 323.847656 342.363281 336.925781 329.839844 336.925781 329.839844 C 340.640625 327.875 345.136719 323.269531 342.921875 319.726562 C 337.402344 316.859375 322.792969 312.621094 324.335938 307.175781 C 324.703125 305.824219 327.660156 306.667969 330.570312 307.449219 C 332.113281 302.003906 343.957031 293.617188 346.871094 294.398438 C 350.585938 292.433594 370.445312 288.984375 374.140625 287.125 C 384.050781 285.371094 363.464844 257.941406 353.003906 250.621094 C 347.9375 246.253906 354.914062 243.824219 356.085938 239.726562 C 349.914062 239.414062 348.171875 234.539062 341.976562 234.328125 C 342.386719 233.042969 325.46875 226.609375 316.769531 224.058594 C 316.769531 224.058594 313.488281 224.628906 304.875 221.933594 C 301.980469 221.046875 301.613281 222.398438 301.179688 223.792969 C 301.550781 222.441406 301.550781 222.441406 301.980469 221.046875 C 298.289062 222.90625 293.304688 218.390625 290.042969 218.855469 C 290.410156 217.503906 290.410156 217.503906 290.84375 216.113281 C 284.320312 217.042969 279.402344 212.484375 273.203125 212.003906 C 273.574219 210.652344 273.574219 210.652344 274.003906 209.257812 C 271.113281 208.375 268.285156 207.445312 268.652344 206.09375 C 269.023438 204.742188 269.023438 204.742188 269.457031 203.351562 C 266.996094 201.070312 260.492188 201.898438 261.230469 199.195312 C 260.863281 200.546875 260.863281 200.546875 260.429688 201.941406 C 249.027344 198.101562 240.84375 194.011719 232.765625 189.664062 C 232.277344 189.351562 231.835938 189.101562 231.347656 188.789062 C 237.144531 189.359375 243.304688 190.328125 247.683594 190.296875 C 248.011719 188.882812 248.644531 186.160156 249.015625 184.808594 L 244.648438 184.1875 L 245.285156 181.464844 C 251.84375 182.34375 257.726562 183.316406 263.777344 183.988281 C 267.867188 184.339844 271.9375 184.792969 276.128906 185.164062 C 275.160156 185.085938 274.359375 184.988281 273.664062 184.90625 C 273.929688 183.535156 274.253906 182.121094 272.042969 181.96875 C 280.769531 182.941406 291.632812 184.757812 301.011719 182.355469 C 303.53125 180.925781 302.046875 176.976562 295.777344 175.164062 C 289.179688 174.769531 284.738281 174.84375 278.265625 174.089844 L 278.855469 171.304688 C 283.179688 171.863281 289.507812 173.355469 294.15625 172.226562 C 296.589844 170.945312 290.628906 167.828125 293.105469 166.609375 C 295.277344 166.699219 297.488281 166.851562 299.921875 165.570312 C 293.433594 165.195312 284.296875 166.335938 278.152344 164.167969 C 276.265625 162.601562 274.441406 160.992188 275.074219 158.269531 C 272.316406 158.394531 269.746094 158.117188 267.445312 157.566406 C 265.101562 156.949219 262.988281 155.996094 261.085938 154.808594 C 257.210938 152.476562 254.175781 149.210938 251.851562 145.375 C 250.78125 142.980469 244.5 142.097656 238.804688 141.273438 C 222.34375 134.4375 205.011719 129.023438 188.652344 121.660156 C 171.980469 114.234375 155.867188 105.882812 142.445312 93.503906 C 141.015625 91.261719 138.160156 86.773438 136.816406 84.382812 C 123.25 72.742188 104.875 62.804688 89.675781 55.390625 C 85.933594 53.523438 81.203125 55.074219 77.40625 57.183594 C 73.609375 59.296875 70.78125 61.761719 70.78125 61.761719 C 67.925781 62.960938 63.992188 66.632812 64.542969 70.570312 C 67.460938 74.742188 76.480469 81.019531 74.324219 86.238281 C 73.808594 87.503906 71.988281 86.167969 70.207031 84.898438 C 68.074219 90.011719 58.15625 96.359375 56.355469 94.917969 C 53.457031 96.054688 39.25 95.125 36.265625 96.136719 C 32.765625 95.84375 32.78125 103.722656 34.636719 112.832031 C 35.488281 117.207031 36.808594 122 38.226562 126.265625 C 25.382812 120.839844 12.40625 115.222656 -0.816406 110.324219 Z M -0.816406 110.324219 " fill-opacity="1" fill-rule="nonzero"/></g></g></g><g clip-path="url(#8567b948aa)"><g clip-path="url(#8a2fdeac36)"><g clip-path="url(#c00953e36b)"><path fill="#5271ff" d="M 276.363281 185.375 C 278.558594 185.632812 281.191406 185.867188 282.730469 185.832031 C 280.496094 185.785156 278.453125 185.609375 276.363281 185.375 Z M 276.363281 185.375 " fill-opacity="1" fill-rule="nonzero"/></g></g></g><g clip-path="url(#e2d8ccd867)"><g clip-path="url(#74983b9ec0)"><g clip-path="url(#8dcb558f1e)"><g clip-path="url(#1b8f310ec0)"><path fill="#212121" d="M 185.414062 171.683594 L 223.511719 201.496094 C 223.234375 196.125 223.644531 190.894531 224.597656 185.890625 C 226.878906 173.847656 232.28125 163.121094 238.699219 154.925781 C 240.613281 152.484375 244.941406 147.804688 250.519531 141.765625 C 260.164062 131.324219 273.769531 116.601562 285.496094 101.632812 C 300.429688 82.574219 312.148438 64.078125 305.496094 58.871094 C 305.144531 58.597656 304.78125 58.414062 304.40625 58.316406 C 303.945312 58.203125 303.390625 58.1875 302.730469 58.269531 C 286.148438 60.34375 265.621094 92.5 249.082031 118.414062 C 241.480469 130.320312 234.675781 140.980469 228.863281 147.617188 C 220.164062 157.539062 210.617188 163.6875 201.363281 167.390625 C 195.851562 169.597656 190.453125 170.933594 185.414062 171.683594 Z M 228.820312 221.535156 L 164.140625 170.917969 L 147.539062 157.929688 L 168.539062 159.78125 C 175.691406 160.410156 185.960938 160.109375 196.679688 155.820312 C 204.332031 152.757812 212.242188 147.660156 219.464844 139.414062 C 224.511719 133.660156 231.136719 123.28125 238.535156 111.691406 C 256.480469 83.578125 278.75 48.691406 301.152344 45.886719 C 303.398438 45.601562 305.5 45.699219 307.492188 46.203125 C 309.574219 46.726562 311.464844 47.660156 313.203125 49.023438 C 327.699219 60.363281 314.355469 85.101562 295.363281 109.34375 C 283.679688 124.246094 269.65625 139.433594 259.710938 150.195312 C 254.535156 155.796875 250.527344 160.132812 248.566406 162.636719 C 243.234375 169.441406 238.757812 178.320312 236.875 188.253906 C 235.308594 196.511719 235.546875 205.511719 238.597656 214.648438 L 245.171875 234.332031 L 228.820312 221.535156 " fill-opacity="1" fill-rule="nonzero"/></g></g></g></g><g clip-path="url(#0a157ac2a5)"><g clip-path="url(#46b2ffa4e2)"><g clip-path="url(#64eb35371b)"><g clip-path="url(#17bc59a8f8)"><path fill="#212121" d="M 64.273438 227.558594 C 65.886719 226.574219 67.808594 226.039062 69.757812 226.125 L 69.757812 226.121094 C 78.472656 226.503906 90.453125 217.761719 101.230469 207.730469 C 112.75 197.011719 122.640625 184.910156 126.640625 179.824219 L 130.507812 174.914062 L 135.40625 178.746094 L 226.648438 250.148438 L 231.785156 254.167969 L 227.566406 259.125 C 223.074219 264.402344 211.734375 277.488281 199.488281 289.980469 C 191.976562 297.648438 184.082031 305.128906 177.105469 310.550781 L 177.097656 310.539062 C 173.699219 313.195312 169.628906 314.679688 165.269531 314.96875 C 161.132812 315.242188 156.769531 314.421875 152.558594 312.492188 C 144.738281 308.917969 123.722656 294.703125 103.761719 279.570312 C 87.371094 267.140625 71.453125 253.929688 63.738281 245.203125 C 62.027344 243.292969 60.824219 241.308594 60.179688 239.386719 C 59.277344 236.703125 59.359375 234.078125 60.511719 231.6875 C 61.34375 229.960938 62.691406 228.519531 64.273438 227.558594 Z M 74.3125 238.277344 C 81.8125 246.292969 96.285156 258.203125 111.308594 269.597656 C 130.734375 284.324219 150.726562 297.949219 157.710938 301.140625 C 160.046875 302.214844 162.359375 302.671875 164.457031 302.535156 C 166.308594 302.414062 168.015625 301.796875 169.414062 300.703125 L 169.421875 300.683594 C 175.847656 295.6875 183.332031 288.582031 190.542969 281.226562 C 199.644531 271.9375 208.238281 262.308594 213.773438 255.953125 L 132.539062 192.382812 C 127.28125 198.753906 119.019531 208.226562 109.765625 216.839844 C 98.613281 227.21875 85.863281 236.414062 74.3125 238.277344 " fill-opacity="1" fill-rule="nonzero"/></g></g></g></g><g clip-path="url(#b3cc16bc1c)"><g clip-path="url(#01579d2d19)"><g clip-path="url(#4d73054a54)"><g clip-path="url(#d8b0db0b00)"><path fill="#212121" d="M 142.316406 161.527344 L 242.734375 240.113281 L 235.027344 249.964844 L 134.605469 171.378906 L 142.316406 161.527344 " fill-opacity="1" fill-rule="nonzero"/></g></g></g></g><g clip-path="url(#61082808ef)"><g clip-path="url(#3cd8074e81)"><g clip-path="url(#fb5cfd8bd1)"><g clip-path="url(#b61b07a648)"><path fill="#212121" d="M 130.019531 288.578125 C 127.265625 290.65625 126.722656 294.570312 128.804688 297.324219 C 130.886719 300.074219 134.804688 300.621094 137.554688 298.542969 L 163.730469 278.886719 C 166.484375 276.808594 167.027344 272.894531 164.949219 270.144531 C 162.863281 267.394531 158.949219 266.84375 156.199219 268.921875 L 130.019531 288.578125 " fill-opacity="1" fill-rule="nonzero"/></g></g></g></g></svg>